<svg id="Capa_1" enable-background="new 0 0 512 512" height="512" viewBox="0 0 512 512" width="512" xmlns="http://www.w3.org/2000/svg"><path d="m395.024 254.39-65.786-181.052c-2.155-5.93-7.79-9.877-14.099-9.877h-46.188c-8.284 0-15 6.716-15 15s6.716 15 15 15h35.68l13.63 37.513-66.493 99.565h-38.998c-9.623-19.246-23.657-47.313-30-60h25.512c8.284 0 15-6.716 15-15s-6.716-15-15-15h-71.999c-8.284 0-15 6.716-15 15s6.716 15 15 15h12.947l20.42 40.84c-40.581-21.276-87.808-23.244-128.912-7.419-7.73 2.976-11.585 11.656-8.608 19.388s11.66 11.586 19.387 8.608c32.322-12.442 70.047-11.476 103.105 5.44l-16.822 25.154c-63.967-29.78-137.8 17.189-137.8 87.989 0 53.486 43.514 97 97 97 48.386 0 88.607-35.611 95.839-82 .171 0 63.002.003 63.173.003 6.764 0 9.376-3.572 12.462-6.672l85.873-128.583 12.489 34.372c-30.277 16.695-50.836 48.93-50.836 85.88 0 54.037 43.963 98 98 98s98-43.963 98-98c0-61.576-56.402-108.083-116.976-96.149zm-208.92-10.102 45.626 91.251h-38.891c-3.446-22.103-14.383-41.756-30.124-56.279zm-40.362 60.352c8.021 8.514 13.838 19.116 16.544 30.899h-37.209zm-48.742 112.899c-36.944 0-67-30.056-67-67 0-46.89 47.15-79.284 90.825-62.607-.067.1-38.546 57.637-36.293 54.269-6.632 9.901.456 23.339 12.488 23.339h65.267c-6.833 29.742-33.5 51.999-65.287 51.999zm160.867-96.805-30.097-60.195h32.018c5.011 0 9.691-2.502 12.474-6.669l58.711-87.912 10.663 29.345zm156.133 97.805c-37.495 0-68-30.505-68-68 0-23.969 12.477-45.064 31.264-57.178l22.637 62.301c2.83 7.787 11.436 11.803 19.222 8.976 7.786-2.83 11.805-11.435 8.976-19.222l-22.645-62.321c41.007-5.17 76.546 26.953 76.546 67.444 0 37.495-30.505 68-68 68z"/></svg>